# xmcd
#
# Track frame offsets:
# 150
# 14565
# 34510
# 48150
# 59918
# 73960
# 87833
# 105323
# 123063
# 134743
# 148663
# 162003
# 177210
# 193710
# 207893
# 226125
# 240158
# 251590
# 269183
# 284588
# 301355
# 314908
#
# Disc length: 4361 seconds
#
#
# Revision: 5
# Processed by: cddbd v1.5.2PL0 Copyright (c) Steve Scherf et al.
# Submitted via: FreeRIP 2.945 
#
DISCID=49110716
DTITLE=Milionário e José Rico - Dose Dupla
DYEAR=1900
DGENRE=Country
TTITLE0=Minha Culpa
TTITLE1=Sonhei com Você
TTITLE2=Por que Recordação
TTITLE3=Entrevista
TTITLE4=Fim da Estrada
TTITLE5=Amor Infinito
TTITLE6=Meu Mundo Vazio (Sereia)
TTITLE7=Meu Tesouro
TTITLE8=Segredo Atroz
TTITLE9=Por Favor
TTITLE10=Velho Confidente
TTITLE11=Escravo do Amor
TTITLE12=Sonho de um Caminhoneiro
TTITLE13=Mundo Fantasia
TTITLE14=Compreensão
TTITLE15=Rotina da Vida
TTITLE16=Reconciliação
TTITLE17=Homens
TTITLE18=Ninguém é de Ninguém
TTITLE19=Conselho de Amigo
TTITLE20=Pombinha Mensageira
TTITLE21=Águas Passadas
EXTD=ID3G:   2
EXTT0=
EXTT1=
EXTT2=
EXTT3=
EXTT4=
EXTT5=
EXTT6=
EXTT7=
EXTT8=
EXTT9=
EXTT10=
EXTT11=
EXTT12=
EXTT13=
EXTT14=
EXTT15=
EXTT16=
EXTT17=
EXTT18=
EXTT19=
EXTT20=
EXTT21=
PLAYORDER=
